<?xml version="1.0" encoding="UTF-8" standalone="no"?> <svg xmlns:dc="http://purl.org/dc/elements/1.1/" xmlns:cc="http://creativecommons.org/ns#" xmlns:rdf="http://www.w3.org/1999/02/22-rdf-syntax-ns#" xmlns:svg="http://www.w3.org/2000/svg" xmlns="http://www.w3.org/2000/svg" viewBox="0 0 1093.3333 360" height="360" width="1093.3333" xml:space="preserve" id="svg2" version="1.1"><metadata id="metadata8"></metadata><defs id="defs6"><linearGradient id="linearGradient30" spreadMethod="pad" gradientTransform="matrix(125.05415,-125.05415,-125.05415,-125.05415,89.555084,197.3427)" gradientUnits="userSpaceOnUse" y2="0" x2="1" y1="0" x1="0"><stop id="stop24" offset="0" style="stop-opacity:1;stop-color:#f6921e"></stop><stop id="stop26" offset="0.987825" style="stop-opacity:1;stop-color:#ec1c24"></stop><stop id="stop28" offset="1" style="stop-opacity:1;stop-color:#ec1c24"></stop></linearGradient><clipPath id="clipPath40"><path id="path38" d="M 0,270 H 820 V 0 H 0 Z"></path></clipPath></defs><g transform="matrix(1.3333333,0,0,-1.3333333,0,360)" id="g10"><g id="g12"><g id="g14"><g id="g20"><g id="g22"><path id="path32" style="fill:url(#linearGradient30);stroke:none" d="M 112.423,217.48 71.888,177.123 C 62.063,167.34 56.636,154.316 56.606,140.45 v 0 c -0.029,-13.865 5.343,-26.91 15.127,-36.734 v 0 h 10e-4 C 81.831,93.577 95.107,88.49 108.399,88.461 v 0 c 10.641,-0.022 21.287,3.208 30.313,9.674 v 0 c -1.817,-5.676 -0.494,-12.141 4.001,-16.655 v 0 l 0.022,-0.022 c 6.418,-6.447 16.847,-6.469 23.292,-0.051 v 0 l 40.535,40.359 c 19.336,19.252 19.403,50.536 0.147,69.871 v 0 c -17.146,17.217 -43.823,19.138 -63.114,5.758 v 0 c 0.773,2.079 1.2,4.294 1.205,6.579 v 0 c 0.011,5.068 -1.953,9.836 -5.549,13.448 v 0 c -3.576,3.591 -8.335,5.575 -13.402,5.585 v 0 c -0.015,0 -0.03,0 -0.045,0 v 0 c -5.052,0.001 -9.801,-1.962 -13.381,-5.527 M 75.276,107.243 C 66.434,116.122 61.58,127.91 61.607,140.44 v 0 c 0.026,12.53 4.931,24.299 13.809,33.14 v 0 l 40.535,40.357 c 2.644,2.634 6.156,4.079 9.887,4.071 v 0 c 3.731,-0.008 7.236,-1.469 9.892,-4.135 v 0 c 2.632,-2.644 4.078,-6.155 4.07,-9.888 v 0 c -0.008,-3.731 -1.469,-7.237 -4.113,-9.869 v 0 L 95.15,153.754 c -3.588,-3.57 -5.569,-8.325 -5.579,-13.386 v 0 c -0.011,-5.061 1.949,-9.823 5.52,-13.41 v 0 c 7.372,-7.402 19.393,-7.429 26.796,-0.058 v 0 l 39.968,39.794 c 2.64,2.629 6.145,4.072 9.871,4.064 v 0 c 3.725,-0.008 7.225,-1.466 9.886,-4.139 v 0 c 2.629,-2.64 4.072,-6.145 4.063,-9.871 v 0 c -0.007,-3.726 -1.466,-7.225 -4.105,-9.854 v 0 L 141.605,107.103 C 132.468,98.005 120.49,93.459 108.513,93.459 v 0 c -12.044,0 -24.087,4.597 -33.237,13.784"></path></g></g></g></g><g id="g34"><g clip-path="url(#clipPath40)" id="g36"><g transform="translate(459.9062,64.1816)" id="g42"><path id="path44" style="fill:#ffffff;fill-opacity:1;fill-rule:nonzero;stroke:none" d="m 0,0 c -1.224,-1.728 -3.071,-2.588 -5.542,-2.583 -2.473,0.006 -4.316,0.874 -5.533,2.607 -1.217,1.732 -1.821,4.097 -1.815,7.094 0.007,2.996 0.621,5.358 1.846,7.086 1.224,1.727 3.071,2.589 5.544,2.583 2.471,-0.005 4.314,-0.875 5.531,-2.607 C 1.247,12.446 1.853,10.082 1.846,7.086 1.839,4.089 1.224,1.727 0,0 m 0.363,17.816 c -1.558,1.101 -3.51,1.654 -5.857,1.659 -2.349,0.005 -4.312,-0.539 -5.89,-1.633 -1.578,-1.093 -2.756,-2.573 -3.531,-4.441 -0.776,-1.868 -1.167,-3.959 -1.172,-6.276 -0.005,-2.316 0.376,-4.411 1.145,-6.282 0.767,-1.87 1.939,-3.356 3.511,-4.456 1.575,-1.099 3.535,-1.652 5.883,-1.658 2.347,-0.004 4.302,0.541 5.864,1.632 1.563,1.094 2.741,2.574 3.533,4.442 0.791,1.867 1.19,3.96 1.195,6.276 0.005,2.317 -0.385,4.41 -1.168,6.282 C 3.092,15.23 1.92,16.717 0.363,17.816 M -28.433,-2.023 c -0.804,-0.154 -1.623,-0.275 -2.457,-0.366 -0.834,-0.091 -1.73,-0.135 -2.688,-0.132 -0.957,10e-4 -1.931,0.111 -2.919,0.33 -0.988,0.217 -1.806,0.66 -2.453,1.326 -0.647,0.665 -0.969,1.677 -0.966,3.037 0.004,1.606 0.639,2.84 1.907,3.702 1.269,0.863 3.062,1.292 5.379,1.287 0.71,-0.002 1.459,-0.043 2.247,-0.12 0.788,-0.08 1.444,-0.151 1.969,-0.214 z m -5.746,21.56 c -1.235,0.003 -2.441,-0.081 -3.615,-0.247 -1.175,-0.168 -2.164,-0.374 -2.967,-0.619 -10e-4,-0.463 0.052,-0.959 0.158,-1.484 0.108,-0.526 0.238,-0.926 0.392,-1.206 0.804,0.247 1.716,0.453 2.735,0.621 1.02,0.167 2.148,0.251 3.384,0.248 1.884,-0.004 3.305,-0.48 4.26,-1.424 0.955,-0.945 1.432,-2.436 1.428,-4.475 l -0.004,-1.436 c -0.526,0.062 -1.19,0.133 -1.992,0.214 -0.804,0.077 -1.761,0.118 -2.873,0.121 -2.843,0.005 -5.168,-0.662 -6.978,-2.001 -1.811,-1.34 -2.719,-3.261 -2.724,-5.764 -0.005,-2.564 0.817,-4.419 2.467,-5.565 1.65,-1.147 3.912,-1.723 6.785,-1.729 1.391,-0.003 2.858,0.103 4.403,0.314 1.546,0.213 2.858,0.426 3.94,0.64 l 0.033,15.616 c 0.007,2.811 -0.715,4.875 -2.164,6.192 -1.449,1.315 -3.672,1.977 -6.668,1.984 m 6.224,6.52 c -0.434,-0.215 -0.913,-0.323 -1.438,-0.322 -0.865,0.002 -1.66,0.197 -2.384,0.585 -0.726,0.388 -1.467,0.784 -2.223,1.187 -0.756,0.402 -1.628,0.605 -2.616,0.607 -0.927,0.002 -1.715,-0.212 -2.365,-0.642 -0.65,-0.432 -1.207,-0.91 -1.671,-1.434 0.245,-0.741 0.614,-1.453 1.107,-2.134 0.587,0.493 1.098,0.862 1.532,1.11 0.432,0.246 0.974,0.368 1.622,0.367 0.835,-0.002 1.606,-0.206 2.316,-0.608 0.709,-0.404 1.441,-0.798 2.199,-1.186 0.756,-0.389 1.612,-0.583 2.57,-0.585 0.896,-0.002 1.676,0.204 2.342,0.62 0.665,0.416 1.23,0.87 1.694,1.363 -0.215,0.804 -0.584,1.546 -1.107,2.228 -0.62,-0.556 -1.145,-0.942 -1.578,-1.156 M -56.15,-5.16 c 1.205,-0.003 2.3,0.087 3.29,0.269 0.989,0.184 1.869,0.413 2.643,0.691 -0.062,0.34 -0.161,0.771 -0.299,1.298 -0.137,0.524 -0.284,0.942 -0.438,1.252 -0.68,-0.246 -1.445,-0.446 -2.295,-0.598 -0.85,-0.153 -1.738,-0.228 -2.665,-0.226 -2.718,0.006 -4.872,0.79 -6.458,2.354 -1.588,1.563 -2.378,4.015 -2.371,7.35 0.006,2.842 0.698,5.166 2.076,6.97 1.379,1.804 3.459,2.704 6.24,2.697 1.081,-10e-4 2.092,-0.082 3.034,-0.238 0.942,-0.156 1.722,-0.344 2.339,-0.561 0.124,0.308 0.241,0.725 0.35,1.251 0.109,0.524 0.165,0.987 0.166,1.389 -0.618,0.218 -1.46,0.412 -2.525,0.585 -1.065,0.171 -2.186,0.26 -3.358,0.262 -2.503,0.006 -4.613,-0.538 -6.33,-1.632 -1.716,-1.093 -3.009,-2.564 -3.879,-4.416 -0.869,-1.852 -1.305,-3.952 -1.31,-6.3 -0.009,-4.016 0.987,-7.085 2.992,-9.205 1.451,-1.537 3.398,-2.511 5.826,-2.937 l -1.719,-4.555 0.232,-0.186 c 0.371,0.062 0.756,0.123 1.159,0.183 0.401,0.061 0.819,0.09 1.251,0.089 0.989,-0.002 1.784,-0.143 2.386,-0.422 0.602,-0.278 0.902,-0.758 0.9,-1.438 -0.002,-0.742 -0.312,-1.281 -0.93,-1.62 -0.619,-0.338 -1.453,-0.506 -2.503,-0.503 -0.495,10e-4 -0.989,0.055 -1.483,0.165 -0.494,0.109 -0.958,0.241 -1.389,0.396 -0.218,-0.34 -0.357,-0.717 -0.42,-1.134 -0.063,-0.418 -0.094,-0.811 -0.095,-1.181 0.524,-0.248 1.119,-0.411 1.782,-0.492 0.664,-0.077 1.198,-0.118 1.6,-0.118 1.946,-0.005 3.498,0.363 4.659,1.101 1.16,0.74 1.742,1.85 1.745,3.333 0.002,1.143 -0.382,2.094 -1.152,2.852 -0.772,0.76 -1.944,1.14 -3.52,1.144 l -0.417,0.001 c -0.124,0 -0.263,-0.016 -0.417,-0.046 l 0.777,2.195 c 0.176,-0.005 0.345,-0.019 0.526,-0.019 m -24.135,3.249 c -0.804,-0.153 -1.623,-0.275 -2.457,-0.365 -0.834,-0.091 -1.731,-0.135 -2.689,-0.133 -0.957,0.002 -1.93,0.111 -2.918,0.33 -0.989,0.218 -1.806,0.66 -2.453,1.326 -0.647,0.665 -0.969,1.678 -0.967,3.037 0.004,1.607 0.64,2.84 1.908,3.702 1.269,0.864 3.062,1.292 5.379,1.287 0.71,-0.002 1.459,-0.043 2.247,-0.12 0.788,-0.08 1.443,-0.151 1.969,-0.214 z m -5.747,21.56 c -1.235,0.003 -2.44,-0.081 -3.614,-0.247 -1.175,-0.168 -2.164,-0.374 -2.967,-0.619 -0.001,-0.463 0.051,-0.959 0.158,-1.483 0.108,-0.527 0.238,-0.927 0.392,-1.206 0.804,0.246 1.715,0.452 2.735,0.62 1.02,0.167 2.147,0.251 3.384,0.248 1.883,-0.004 3.304,-0.48 4.26,-1.424 0.955,-0.944 1.431,-2.435 1.427,-4.475 L -80.26,9.627 c -0.527,0.062 -1.19,0.134 -1.993,0.214 -0.804,0.077 -1.761,0.119 -2.873,0.121 -2.843,0.006 -5.168,-0.661 -6.978,-2.001 -1.81,-1.34 -2.718,-3.261 -2.723,-5.764 -0.006,-2.564 0.816,-4.419 2.466,-5.565 1.65,-1.147 3.913,-1.723 6.786,-1.729 1.39,-0.003 2.857,0.103 4.403,0.315 1.545,0.213 2.858,0.426 3.94,0.639 l 0.033,15.617 c 0.007,2.81 -0.715,4.875 -2.164,6.191 -1.449,1.315 -3.673,1.978 -6.669,1.984 m -17.008,-0.426 c -0.247,0 -0.525,-0.007 -0.834,-0.022 -0.309,-0.015 -0.555,-0.038 -0.741,-0.068 l -7.644,-20.419 -7.416,20.452 c -0.186,0.03 -0.463,0.055 -0.834,0.07 -0.371,0.017 -0.679,0.026 -0.927,0.027 -0.679,10e-4 -1.268,-0.03 -1.761,-0.09 l 9.355,-23.652 c 0.526,-0.095 1.02,-0.142 1.484,-0.143 0.494,-0.001 0.972,0.044 1.436,0.136 l 9.459,23.612 c -0.186,0.031 -0.434,0.055 -0.743,0.071 -0.308,0.017 -0.586,0.025 -0.834,0.026 M -134.197,0.291 c -1.224,-1.728 -3.072,-2.588 -5.542,-2.583 -2.473,0.006 -4.317,0.874 -5.533,2.606 -1.217,1.733 -1.821,4.097 -1.814,7.094 0.006,2.996 0.621,5.359 1.845,7.086 1.223,1.728 3.071,2.59 5.544,2.584 2.47,-0.005 4.314,-0.876 5.531,-2.607 1.216,-1.734 1.821,-4.098 1.815,-7.094 -0.007,-2.997 -0.622,-5.359 -1.846,-7.086 m 0.363,17.816 c -1.558,1.101 -3.511,1.654 -5.857,1.659 -2.349,0.005 -4.311,-0.539 -5.89,-1.633 -1.577,-1.093 -2.755,-2.574 -3.531,-4.441 -0.777,-1.868 -1.167,-3.959 -1.172,-6.276 -0.005,-2.316 0.376,-4.411 1.145,-6.282 0.767,-1.871 1.939,-3.356 3.512,-4.456 1.573,-1.099 3.533,-1.653 5.882,-1.657 2.347,-0.005 4.302,0.54 5.865,1.631 1.562,1.094 2.74,2.574 3.532,4.441 0.791,1.868 1.19,3.961 1.195,6.277 0.005,2.318 -0.385,4.41 -1.168,6.281 -0.784,1.87 -1.955,3.357 -3.513,4.456 m -33.477,1.718 c -1.359,0.003 -2.571,-0.242 -3.639,-0.734 -1.067,-0.491 -1.964,-1.107 -2.692,-1.848 -0.728,-0.739 -1.308,-1.479 -1.741,-2.22 0.001,0.618 -0.014,1.344 -0.043,2.178 -0.029,0.834 -0.074,1.529 -0.134,2.086 -0.248,0.03 -0.479,0.055 -0.695,0.07 -0.217,0.017 -0.448,0.025 -0.695,0.026 -0.216,0 -0.441,-0.007 -0.672,-0.023 -0.232,-0.014 -0.471,-0.038 -0.718,-0.067 l -0.051,-23.633 c 0.185,-0.031 0.447,-0.055 0.787,-0.071 0.339,-0.017 0.586,-0.025 0.742,-0.026 0.184,0 0.439,0.007 0.764,0.023 0.325,0.015 0.579,0.037 0.765,0.067 l 0.025,11.678 c 0.005,2.069 0.355,3.822 1.054,5.258 0.698,1.434 1.634,2.528 2.811,3.283 1.175,0.754 2.488,1.13 3.941,1.127 1.637,-0.004 2.864,-0.579 3.681,-1.723 0.816,-1.144 1.22,-3.03 1.215,-5.656 l -0.03,-13.994 c 0.185,-0.031 0.447,-0.055 0.787,-0.071 0.34,-0.017 0.586,-0.025 0.742,-0.025 0.185,-0.001 0.44,0.007 0.764,0.022 0.324,0.014 0.579,0.038 0.765,0.067 l 0.033,14.921 c 0.006,2.935 -0.607,5.215 -1.839,6.839 -1.233,1.625 -3.208,2.44 -5.927,2.446 m -25.659,5.223 c 0.401,-0.018 0.741,-0.025 1.019,-0.026 0.247,-10e-4 0.556,0.006 0.927,0.022 0.37,0.014 0.679,0.036 0.927,0.067 0.031,0.278 0.055,0.618 0.072,1.02 0.016,0.4 0.025,0.741 0.025,1.019 0,0.246 -0.006,0.556 -0.021,0.927 -0.015,0.37 -0.038,0.679 -0.068,0.927 -0.247,0.03 -0.556,0.055 -0.926,0.071 -0.371,0.016 -0.68,0.025 -0.927,0.026 -0.278,0.001 -0.618,-0.008 -1.019,-0.022 -0.403,-0.015 -0.742,-0.037 -1.02,-0.066 -0.032,-0.248 -0.056,-0.557 -0.072,-0.927 -0.017,-0.371 -0.025,-0.681 -0.025,-0.927 -0.001,-0.278 0.006,-0.619 0.021,-1.019 0.014,-0.403 0.036,-0.743 0.067,-1.02 0.279,-0.032 0.617,-0.057 1.02,-0.072 m -2.539,-6.32 c -0.017,-0.248 -0.025,-0.495 -0.025,-0.742 -0.001,-0.247 0.005,-0.479 0.021,-0.695 0.015,-0.216 0.038,-0.401 0.069,-0.556 l 2.965,-0.006 -0.045,-21.039 c 0.186,-0.03 0.447,-0.054 0.787,-0.071 0.34,-0.015 0.587,-0.024 0.742,-0.024 0.184,-10e-4 0.439,0.007 0.765,0.021 0.324,0.015 0.579,0.038 0.765,0.068 l 0.05,23.632 -6.023,0.014 c -0.032,-0.154 -0.056,-0.355 -0.071,-0.602 m 193.33,70.944 -36.153,0.078 c -1.472,0.004 -2.615,1.323 -2.373,2.775 0.984,5.901 3.049,10.577 6.193,14.029 3.621,3.973 8.673,5.956 15.158,5.942 4.723,-0.011 8.517,-1.109 11.385,-3.29 2.865,-2.184 4.967,-5.013 6.303,-8.489 1.038,-2.703 1.671,-5.532 1.896,-8.486 0.107,-1.386 -1.018,-2.562 -2.409,-2.559 m -1.397,26.749 c -4.302,2.74 -9.557,4.12 -15.761,4.133 -7.318,0.016 -13.32,-1.662 -18.004,-5.032 -4.685,-3.373 -8.144,-7.88 -10.38,-13.524 -2.235,-5.646 -3.36,-11.941 -3.375,-18.889 -0.015,-7.132 1.174,-13.479 3.571,-19.042 2.395,-5.562 6.161,-9.902 11.296,-13.014 5.133,-3.115 11.775,-4.681 19.926,-4.699 4.26,-0.009 8.199,0.308 11.813,0.947 2.864,0.509 5.436,1.191 7.719,2.049 1.041,0.39 1.687,1.444 1.54,2.545 -0.093,0.694 -0.21,1.426 -0.353,2.196 -0.085,0.457 -0.179,0.892 -0.281,1.305 -0.332,1.338 -1.719,2.124 -3.035,1.713 -2.167,-0.675 -4.372,-1.234 -6.616,-1.677 -3.011,-0.598 -6.277,-0.889 -9.797,-0.882 -8.707,0.019 -15.232,2.256 -19.575,6.712 -3.949,4.049 -6.093,10.16 -6.436,18.333 -0.057,1.37 1.043,2.518 2.413,2.515 L 6.962,82.011 c 1.276,-0.003 2.339,0.987 2.405,2.261 0.019,0.341 0.034,0.697 0.049,1.068 0.049,1.296 0.074,2.363 0.076,3.196 0.014,6.205 -1.086,11.719 -3.298,16.541 -2.213,4.819 -5.469,8.602 -9.77,11.344 M 143.526,57.607 c -0.002,-1.164 -0.836,-2.174 -1.984,-2.366 -1.771,-0.297 -3.566,-0.543 -5.386,-0.742 -2.502,-0.271 -5.189,-0.405 -8.059,-0.399 -2.872,0.006 -5.789,0.336 -8.751,0.992 -2.964,0.653 -5.414,1.978 -7.356,3.975 -1.94,1.995 -2.906,5.03 -2.897,9.107 0.011,4.815 1.916,8.516 5.72,11.103 3.802,2.584 9.178,3.87 16.125,3.855 2.13,-0.005 4.376,-0.127 6.739,-0.362 1.391,-0.14 2.646,-0.271 3.764,-0.394 1.221,-0.134 2.137,-1.166 2.134,-2.394 z m -17.231,62.632 c -3.706,0.008 -7.318,-0.241 -10.839,-0.741 -2.65,-0.378 -4.985,-0.822 -7.005,-1.332 -1.133,-0.286 -1.906,-1.357 -1.791,-2.52 0.079,-0.79 0.204,-1.607 0.376,-2.452 0.096,-0.47 0.197,-0.907 0.306,-1.311 0.345,-1.289 1.644,-2.056 2.935,-1.722 1.875,0.486 3.92,0.912 6.134,1.277 3.058,0.501 6.439,0.75 10.145,0.742 5.648,-0.013 9.907,-1.435 12.772,-4.265 2.865,-2.834 4.292,-7.305 4.278,-13.418 l -0.003,-1.624 c -0.003,-1.428 -1.243,-2.536 -2.663,-2.384 -1,0.107 -2.105,0.22 -3.316,0.339 -2.409,0.236 -5.278,0.36 -8.613,0.367 -8.523,0.018 -15.496,-1.982 -20.923,-5.999 -5.428,-4.017 -8.15,-9.777 -8.166,-17.28 -0.017,-7.689 2.449,-13.253 7.397,-16.688 4.947,-3.44 11.73,-5.167 20.344,-5.186 4.168,-0.009 8.566,0.308 13.201,0.944 3.737,0.516 7.021,1.032 9.855,1.548 1.139,0.208 1.961,1.2 1.963,2.36 l 0.097,44.834 c 0.019,8.428 -2.145,14.615 -6.489,18.562 -4.347,3.946 -11.012,5.929 -19.995,5.949 M 81.954,52.95 c -0.141,0.534 -0.284,1.032 -0.43,1.492 -0.398,1.255 -1.711,1.95 -2.975,1.58 -1.482,-0.433 -3.078,-0.802 -4.788,-1.109 -2.55,-0.46 -5.211,-0.684 -7.99,-0.678 -8.152,0.018 -14.608,2.369 -19.367,7.059 -4.761,4.685 -7.13,12.034 -7.107,22.037 0.018,8.52 2.094,15.486 6.227,20.896 4.132,5.41 10.369,8.106 18.705,8.087 3.242,-0.006 6.273,-0.246 9.099,-0.713 1.802,-0.301 3.405,-0.638 4.811,-1.012 1.299,-0.345 2.623,0.429 2.946,1.734 0.104,0.418 0.206,0.866 0.306,1.344 0.158,0.758 0.278,1.474 0.36,2.147 0.145,1.186 -0.607,2.29 -1.761,2.601 -1.568,0.422 -3.459,0.814 -5.672,1.171 -3.195,0.516 -6.552,0.78 -10.072,0.787 -7.502,0.016 -13.827,-1.616 -18.975,-4.892 -5.148,-3.277 -9.026,-7.691 -11.63,-13.243 -2.607,-5.552 -3.916,-11.849 -3.931,-18.887 -0.026,-12.042 2.963,-21.242 8.971,-27.598 6.006,-6.359 14.798,-9.55 26.378,-9.575 3.612,-0.008 6.899,0.263 9.866,0.812 2.106,0.391 4.05,0.852 5.83,1.383 1.221,0.364 1.923,1.63 1.628,2.869 -0.126,0.528 -0.269,1.097 -0.429,1.708 m 129.238,32.648 c -3.331,1.487 -6.663,2.746 -9.995,3.773 -2.499,0.838 -4.859,1.699 -7.08,2.586 -2.221,0.884 -4.004,2.068 -5.342,3.555 -1.34,1.483 -2.007,3.384 -2.003,5.7 0.008,3.241 1.195,5.854 3.561,7.842 2.366,1.986 6.373,2.973 12.024,2.961 3.242,-0.007 6.368,-0.339 9.376,-0.993 1.97,-0.429 3.712,-0.858 5.227,-1.285 1.261,-0.357 2.582,0.362 2.948,1.62 0.159,0.55 0.308,1.103 0.445,1.662 0.155,0.638 0.293,1.271 0.418,1.899 0.238,1.207 -0.474,2.396 -1.649,2.757 -1.593,0.488 -3.541,0.955 -5.843,1.403 -3.38,0.653 -6.875,0.987 -10.487,0.995 -8.614,0.019 -14.988,-1.728 -19.115,-5.239 -4.13,-3.511 -6.2,-8.092 -6.213,-13.74 -0.008,-3.8 0.841,-6.904 2.55,-9.316 1.708,-2.412 4.09,-4.384 7.142,-5.919 3.054,-1.535 6.615,-3.002 10.69,-4.401 2.683,-0.838 5.206,-1.795 7.565,-2.863 2.36,-1.072 4.254,-2.489 5.688,-4.251 1.43,-1.764 2.143,-4.22 2.136,-7.368 -0.007,-3.613 -1.634,-6.644 -4.881,-9.09 -3.249,-2.448 -7.65,-3.665 -13.208,-3.653 -2.965,0.006 -6.066,0.313 -9.306,0.923 -2.254,0.423 -4.215,0.902 -5.885,1.436 -1.202,0.385 -2.503,-0.254 -2.953,-1.433 -0.255,-0.665 -0.482,-1.331 -0.684,-1.997 -0.209,-0.689 -0.4,-1.379 -0.574,-2.068 -0.31,-1.231 0.39,-2.487 1.597,-2.879 1.776,-0.577 3.886,-1.065 6.327,-1.46 3.472,-0.564 7.432,-0.851 11.878,-0.859 7.965,-0.018 14.499,1.935 19.602,5.862 5.101,3.925 7.662,9.268 7.676,16.03 0.011,4.909 -1.092,8.732 -3.308,11.47 -2.218,2.736 -4.992,4.85 -8.324,6.34 m 80.671,3.437 -36.153,0.079 c -1.472,0.003 -2.615,1.322 -2.373,2.774 0.984,5.901 3.05,10.577 6.193,14.029 3.621,3.974 8.673,5.956 15.157,5.941 4.725,-0.01 8.519,-1.108 11.386,-3.289 2.865,-2.184 4.967,-5.012 6.303,-8.489 1.038,-2.704 1.671,-5.532 1.896,-8.486 0.107,-1.386 -1.018,-2.562 -2.409,-2.559 m 8.372,15.405 c -2.212,4.819 -5.468,8.602 -9.77,11.344 -4.301,2.74 -9.556,4.12 -15.761,4.133 -7.317,0.016 -13.319,-1.663 -18.003,-5.032 -4.684,-3.373 -8.144,-7.88 -10.38,-13.525 -2.234,-5.645 -3.36,-11.941 -3.376,-18.888 -0.015,-7.133 1.174,-13.479 3.572,-19.041 2.396,-5.564 6.162,-9.903 11.295,-13.015 5.134,-3.114 11.776,-4.682 19.928,-4.699 4.259,-0.009 8.198,0.308 11.812,0.947 2.864,0.509 5.436,1.191 7.72,2.049 1.04,0.391 1.686,1.443 1.539,2.545 -0.092,0.693 -0.21,1.426 -0.353,2.195 -0.085,0.458 -0.178,0.893 -0.28,1.306 -0.332,1.338 -1.72,2.123 -3.036,1.713 -2.167,-0.675 -4.372,-1.235 -6.615,-1.678 -3.012,-0.597 -6.278,-0.889 -9.797,-0.881 -8.708,0.019 -15.233,2.256 -19.576,6.712 -3.949,4.049 -6.093,10.16 -6.436,18.333 -0.058,1.37 1.043,2.518 2.413,2.515 l 45.873,-0.099 c 1.276,-0.003 2.339,0.987 2.405,2.261 0.019,0.341 0.035,0.697 0.049,1.069 0.049,1.295 0.075,2.361 0.076,3.194 0.014,6.206 -1.086,11.72 -3.299,16.542 M -145.158,62.402 c 1.63,4.211 2.452,9.652 2.466,16.321 l 0.083,38.235 c 0.003,1.277 -0.991,2.34 -2.266,2.405 -0.03,0.001 -0.06,0.003 -0.091,0.004 -1.017,0.049 -1.758,0.073 -2.222,0.074 -0.556,0.002 -1.32,-0.02 -2.293,-0.064 -0.01,-10e-4 -0.019,-10e-4 -0.029,-10e-4 -1.273,-0.061 -2.266,-1.121 -2.269,-2.395 l -0.081,-37.683 c -0.015,-6.669 -0.929,-11.762 -2.743,-15.277 -1.814,-3.517 -4.459,-6.254 -7.936,-7.588 -5.849,-2.248 -10.555,-2.239 -16.395,0.035 -3.47,1.349 -6.104,4.098 -7.902,7.624 -1.799,3.522 -2.691,8.619 -2.676,15.288 l 0.081,37.683 c 0.003,1.273 -0.986,2.338 -2.258,2.404 -0.009,0.001 -0.019,0.001 -0.029,0.002 -0.972,0.048 -1.737,0.073 -2.292,0.074 -0.465,10e-4 -1.205,-0.021 -2.223,-0.064 -0.031,-0.002 -0.061,-0.003 -0.091,-0.005 -1.276,-0.059 -2.274,-1.118 -2.277,-2.395 l -0.083,-38.235 c -0.014,-6.669 0.784,-12.114 2.396,-16.33 1.611,-4.22 3.874,-7.466 6.788,-9.741 2.912,-2.277 6.264,-4.141 10.062,-5.029 5.916,-1.383 11.444,-1.394 17.367,-0.037 3.8,0.87 7.161,2.721 10.084,4.985 2.923,2.262 5.2,5.498 6.829,9.71 m 62.308,23.833 c -3.331,1.487 -6.663,2.745 -9.995,3.773 -2.499,0.839 -4.859,1.7 -7.08,2.586 -2.221,0.884 -4.003,2.068 -5.342,3.554 -1.34,1.484 -2.007,3.385 -2.002,5.701 0.007,3.241 1.194,5.854 3.56,7.842 2.366,1.986 6.374,2.974 12.025,2.961 3.241,-0.006 6.366,-0.339 9.375,-0.993 1.97,-0.429 3.712,-0.858 5.226,-1.285 1.262,-0.357 2.583,0.362 2.949,1.62 0.159,0.55 0.308,1.104 0.444,1.661 0.155,0.638 0.295,1.272 0.419,1.9 0.238,1.206 -0.474,2.397 -1.649,2.757 -1.593,0.488 -3.54,0.955 -5.843,1.403 -3.381,0.654 -6.875,0.987 -10.487,0.995 -8.615,0.019 -14.987,-1.728 -19.116,-5.239 -4.13,-3.512 -6.2,-8.092 -6.212,-13.741 -0.008,-3.799 0.84,-6.902 2.55,-9.314 1.708,-2.414 4.089,-4.385 7.142,-5.92 3.054,-1.535 6.615,-3.002 10.689,-4.4 2.684,-0.839 5.207,-1.796 7.566,-2.865 2.36,-1.071 4.254,-2.488 5.687,-4.25 1.432,-1.764 2.145,-4.221 2.138,-7.368 -0.007,-3.612 -1.636,-6.644 -4.883,-9.09 -3.248,-2.448 -7.649,-3.666 -13.207,-3.653 -2.965,0.006 -6.066,0.313 -9.307,0.923 -2.253,0.423 -4.214,0.901 -5.884,1.436 -1.202,0.384 -2.503,-0.253 -2.953,-1.432 -0.255,-0.666 -0.482,-1.332 -0.684,-1.997 -0.209,-0.69 -0.4,-1.379 -0.574,-2.069 -0.31,-1.23 0.389,-2.487 1.596,-2.878 1.777,-0.579 3.887,-1.065 6.328,-1.461 3.472,-0.563 7.431,-0.85 11.877,-0.86 7.965,-0.017 14.499,1.937 19.603,5.863 5.102,3.924 7.662,9.268 7.676,16.03 0.011,4.909 -1.092,8.732 -3.309,11.471 -2.218,2.735 -4.992,4.849 -8.323,6.339"></path></g></g></g></g></svg> 